<svg id="Capa_1" enable-background="new 0 0 512 512" height="512" viewBox="0 0 512 512" width="512" xmlns="http://www.w3.org/2000/svg"><g><g><path d="m93.178 76.052h394.172v428.448h-394.172z" fill="#afaab4"/></g><g><path d="m58.903 41.776h394.172v428.448h-394.172z" fill="#c6c1c8"/></g><g><g><path d="m24.627 7.5h394.172v428.448h-394.172z" fill="#f9f6f9"/></g><g><path d="m394.163 7.5h24.636v428.448h-24.636z" fill="#dfdde2"/></g><g><path d="m71.756 28.922h299.914v325.621h-299.914z" fill="#9dc6fb" transform="matrix(0 1 -1 0 413.446 -29.98)"/></g><g><g><path d="m384.523 257.628v84.062h-140.574l81.727-163.453c3.942-7.894 15.21-7.894 19.152 0z" fill="#595959"/></g><g><path d="m320.085 341.69h-76.136l10.969-21.948 13.924-27.838 13.175-26.35z" fill="#454545"/></g><g><path d="m293.735 341.69h-234.832v-84.062l82.476-164.963 2.431-4.852c4.734-9.479 18.252-9.479 22.986 0z" fill="#818181"/></g><g><path d="m293.735 341.69h-27.849c-3.578-7.177-7.252-14.503-10.968-21.947-46.037-92.084-100.289-200.578-113.539-227.078l2.431-4.852c4.734-9.479 18.252-9.479 22.986 0z" fill="#595959"/></g><g><path d="m93.599 221.657c4.134 2.862 9.701 2.463 13.385-.958l14.653-13.607c4.77-4.429 12.354-3.615 16.076 1.724l8.802 12.629c4.262 6.115 13.313 6.115 17.575 0l8.802-12.63c3.722-5.34 11.306-6.153 16.076-1.724l14.653 13.607c3.684 3.421 9.252 3.819 13.385.958l12.417-8.596c-23.184-46.369-48.391-96.783-62.625-125.25-4.737-9.474-18.256-9.473-22.993 0l-62.625 125.25z" fill="#f9f6f9"/></g><g><path d="m206.3 222.509c3.394 1.62 7.485 1.379 10.708-.852l12.417-8.596c-23.184-46.369-48.391-96.783-62.625-125.25-4.737-9.474-18.256-9.473-22.993 0l-2.428 4.856c8.525 17.051 33.757 67.515 64.921 129.842z" fill="#dfdde2"/></g><g><path d="m384.523 257.62c-15.04-30.08-30.235-60.47-39.694-79.389-3.947-7.895-15.21-7.888-19.158.006l-46.816 93.633 9.448 6.541c3.145 2.177 7.382 1.874 10.185-.729l11.149-10.353c3.629-3.37 9.4-2.751 12.232 1.312l6.697 9.609c3.243 4.653 10.129 4.653 13.372 0l6.698-9.609c2.832-4.063 8.603-4.682 12.232-1.312l11.149 10.353c2.803 2.603 7.039 2.906 10.185.729l2.322-1.608v-19.183z" fill="#dfdde2"/></g></g><g><circle cx="268.842" cy="121.039" fill="#ffe07d" r="35.347"/></g></g><g><path d="m487.351 461.5c-4.143 0-7.5 3.358-7.5 7.5v28h-379.173v-19.276h352.396c4.143 0 7.5-3.358 7.5-7.5v-233.349c0-4.142-3.357-7.5-7.5-7.5s-7.5 3.358-7.5 7.5v225.849h-379.172v-19.276h352.397c4.143 0 7.5-3.358 7.5-7.5v-74.274c0-4.142-3.357-7.5-7.5-7.5s-7.5 3.358-7.5 7.5v66.774h-379.173v-413.448h379.173v311.652c0 4.142 3.357 7.5 7.5 7.5s7.5-3.358 7.5-7.5v-277.376h19.275v152.581c0 4.142 3.357 7.5 7.5 7.5s7.5-3.358 7.5-7.5v-118.305h19.276l.022 350.436c0 4.142 3.358 7.5 7.5 7.5 4.143 0 7.5-3.358 7.5-7.5l-.022-357.935c0-4.142-3.358-7.5-7.5-7.5h-26.776v-26.777c0-4.142-3.357-7.5-7.5-7.5h-26.775v-26.776c0-4.142-3.357-7.5-7.5-7.5h-394.173c-4.142 0-7.5 3.358-7.5 7.5v428.448c0 4.142 3.358 7.5 7.5 7.5h26.776v26.776c0 4.142 3.358 7.5 7.5 7.5h26.776v26.776c0 4.142 3.358 7.5 7.5 7.5h394.173c4.143 0 7.5-3.358 7.5-7.5v-35.5c0-4.142-3.357-7.5-7.5-7.5z"/><path d="m58.902 383.461c-4.142 0-7.5 3.358-7.5 7.5s3.358 7.5 7.5 7.5h92.117c4.142 0 7.5-3.358 7.5-7.5s-3.358-7.5-7.5-7.5z"/><path d="m384.523 383.461h-92.116c-4.143 0-7.5 3.358-7.5 7.5s3.357 7.5 7.5 7.5h92.116c4.143 0 7.5-3.358 7.5-7.5s-3.357-7.5-7.5-7.5z"/><path d="m392.023 41.776c0-4.142-3.357-7.5-7.5-7.5h-325.621c-4.142 0-7.5 3.358-7.5 7.5v299.914c0 4.142 3.358 7.5 7.5 7.5h325.621c4.143 0 7.5-3.358 7.5-7.5zm-15 230.32-11.053-10.263c-3.321-3.084-7.819-4.576-12.317-4.092-4.507.483-8.578 2.894-11.171 6.612l-6.696 9.609c-.059.083-.194.278-.533.278-.34 0-.476-.195-.533-.278l-6.698-9.609c-2.592-3.719-6.663-6.129-11.171-6.612-4.501-.48-8.996 1.008-12.317 4.093l-11.149 10.353c-.222.206-.564.23-.812.058l-4.097-2.836 43.911-87.822c.77-1.541 2.126-1.771 2.866-1.771.739 0 2.096.23 2.867 1.775l38.903 77.807zm0-222.82v176.582l-25.485-50.971c-3.102-6.212-9.342-10.071-16.285-10.071-6.944 0-13.185 3.859-16.284 10.067l-50.126 100.251-95.337-190.673c-3.468-6.945-10.443-11.259-18.203-11.259-7.759 0-14.734 4.314-18.197 11.25l-70.704 141.405v-176.581zm-157.218 161.323-7.066 4.892c-1.229.851-2.917.73-4.012-.288l-14.653-13.607c-3.866-3.589-9.091-5.322-14.334-4.762-5.244.563-9.982 3.367-12.998 7.694l-8.803 12.63c-.833 1.196-2.008 1.375-2.634 1.375-.625 0-1.8-.179-2.634-1.375l-8.803-12.629c-3.016-4.327-7.753-7.132-12.998-7.694-5.241-.557-10.469 1.174-14.334 4.763l-14.653 13.606c-1.096 1.018-2.784 1.139-4.013.287l-7.067-4.892 57.283-114.573 2.437-4.862c1.334-2.672 3.789-2.96 4.783-2.96s3.449.289 4.785 2.964zm-153.403 48.8 17.623-35.248 5.305 3.672c6.972 4.827 16.543 4.142 22.758-1.628l14.653-13.607c.934-.866 1.986-.896 2.527-.84.543.059 1.564.312 2.292 1.357l8.802 12.629c3.403 4.883 8.989 7.799 14.94 7.799 5.952 0 11.538-2.916 14.94-7.798l8.803-12.629c.728-1.045 1.749-1.298 2.292-1.357.544-.057 1.595-.026 2.527.84l14.653 13.607c6.215 5.77 15.786 6.456 22.758 1.628l5.304-3.672 55.021 110.037h-215.198zm231.968 74.79-21.143-42.285 4.471-8.943 2.335 1.617c5.992 4.147 14.217 3.558 19.557-1.4l11.149-10.353c.054-.049.223-.2.512-.17.295.032.423.215.464.275l6.698 9.609c2.924 4.196 7.724 6.701 12.839 6.701 5.114 0 9.914-2.505 12.839-6.701l6.696-9.609c.042-.06.17-.243.465-.275.302-.037.457.12.511.17l11.15 10.354c2.817 2.615 6.438 4.002 10.109 4.132v46.879h-78.652z"/><path d="m268.842 163.886c23.626 0 42.847-19.221 42.847-42.847s-19.221-42.847-42.847-42.847-42.847 19.221-42.847 42.847 19.221 42.847 42.847 42.847zm0-70.694c15.354 0 27.847 12.492 27.847 27.847s-12.492 27.847-27.847 27.847-27.847-12.492-27.847-27.847 12.492-27.847 27.847-27.847z"/></g></g></svg>